<svg xmlns="http://www.w3.org/2000/svg" viewBox="0 0 1550.55 3415.75" fill="none" stroke="currentColor" stroke-width="1.1" stroke-linecap="round" stroke-linejoin="round">
  <g opacity="0.68">
    <path d="M 82.78 317 H 1466.49 V 3096.75 H 82.78 Z"/>
    <path d="M 82.78 317 H 1466.49 V 3096.75 H 82.78 Z"/>
    <path d="M 92.11 220.18 H 1461.49 V 3090.75 H 92.11 Z M 82.11 210.18 H 1471.49 V 3100.75 H 82.11 Z"/>
    <path d="M 50.92 3194.57 L 1500.98 3194.57 M 1500.98 3194.57 L 1500.98 220.18 M 1500.98 220.18 L 52.62 220.18 M 52.62 220.18 L 50.92 3194.57 M 1510.98 3204.57 L 40.92 3204.57 M 40.92 3204.57 L 42.62 210.18 M 42.62 210.18 L 1510.98 210.18 M 1510.98 210.18 L 1510.98 3204.57"/>
    <path d="M 1464.66 322.65 L 776.8 52.7 M 776.8 52.7 L 88.94 322.65 M 88.94 322.65 L 85.29 313.34 M 85.29 313.34 L 776.8 41.95 M 776.8 41.95 L 1468.31 313.34 M 1468.31 313.34 L 1464.66 322.65"/>
    <path d="M 1332.32 218.71 L 1325.24 211.65 M 1325.24 211.65 L 1534.44 1.79 M 1534.44 1.79 L 1541.52 8.86 M 1541.52 8.86 L 1332.32 218.71"/>
    <path d="M 1536.22 -0 L 1328.54 208.35 M 1328.54 208.35 L 1100.88 10.55 M 1100.88 10.55 L 1094.32 18.1 M 1094.32 18.1 L 1329.03 222.02 M 1329.03 222.02 L 1550.34 -0 M 1550.34 -0 L 1536.22 -0"/>
    <path d="M 1323.78 5.32 L 1323.78 222.48 M 1323.78 222.48 L 1550.55 134.82 M 1550.55 134.82 L 1550.55 124.1 M 1550.55 124.1 L 1333.78 207.89 M 1333.78 207.89 L 1333.78 5.32 M 1333.78 5.32 L 1323.78 5.32"/>
    <path d="M 1536.22 -0 L 1328.55 208.34 M 1328.55 208.34 L 1096.33 5.58 M 1096.33 5.58 L 1037.51 106.21 M 1037.51 106.21 L 1046.15 111.26 M 1046.15 111.26 L 1098.87 21.07 M 1098.87 21.07 L 1329.02 222.03 M 1329.02 222.03 L 1550.34 -0 M 1550.34 -0 L 1536.22 -0"/>
    <path d="M 1323.78 5.32 L 1323.78 222.48 M 1323.78 222.48 L 1550.55 134.82 M 1550.55 134.82 L 1550.55 124.1 M 1550.55 124.1 L 1333.78 207.89 M 1333.78 207.89 L 1333.78 5.32 M 1333.78 5.32 L 1323.78 5.32"/>
    <path d="M 0 -0 L 0 2.64 M 0 2.64 L 217.69 221.03 M 217.69 221.03 L 447.95 19.98 M 447.95 19.98 L 507.72 117.02 M 507.72 117.02 L 516.23 111.78 M 516.23 111.78 L 450.27 4.67 M 450.27 4.67 L 218.17 207.34 M 218.17 207.34 L 11.48 -0 M 11.48 -0 L 0 -0"/>
    <path d="M 212.93 4.32 L 212.93 206.89 M 212.93 206.89 L 0 124.59 M 0 124.59 L 0 135.31 M 0 135.31 L 222.93 221.48 M 222.93 221.48 L 222.93 4.32 M 222.93 4.32 L 212.93 4.32"/>
    <path d="M 1464.67 285.65 L 776.8 16.69 M 776.8 16.69 L 88.93 285.65 M 88.93 285.65 L 85.29 276.34 M 85.29 276.34 L 776.8 5.96 M 776.8 5.96 L 1468.31 276.34 M 1468.31 276.34 L 1464.67 285.65"/>
    <path d="M 735.82 123.53 L 776.72 194.89 M 776.72 194.89 L 817.61 123.53 M 817.61 123.53 L 776.72 66.14 M 776.72 66.14 L 735.82 123.53 M 776.72 215.01 L 723.96 122.94 M 723.96 122.94 L 776.72 48.91 M 776.72 48.91 L 829.48 122.94 M 829.48 122.94 L 776.72 215.01"/>
    <path d="M 703.41 110.04 L 644.89 188.4 M 644.89 188.4 L 781.38 137.01 M 781.38 137.01 L 770.75 71.31 M 770.75 71.31 L 703.41 110.04 M 616.42 209.8 L 696.63 102.4 M 696.63 102.4 L 697.53 101.88 M 697.53 101.88 L 778.31 55.43 M 778.31 55.43 L 792.56 143.49 M 792.56 143.49 L 616.42 209.8"/>
    <path d="M 771.84 137.01 L 908.34 188.4 M 908.34 188.4 L 849.82 110.04 M 849.82 110.04 L 782.47 71.31 M 782.47 71.31 L 771.84 137.01 M 936.8 209.8 L 760.67 143.49 M 760.67 143.49 L 774.91 55.43 M 774.91 55.43 L 856.59 102.4 M 856.59 102.4 L 936.8 209.8"/>
    <path d="M 620.15 219.13 L 528.13 147.61 M 528.13 147.61 L 534.27 139.71 M 534.27 139.71 L 626.29 211.24 M 626.29 211.24 L 620.15 219.13"/>
    <path d="M 935.97 218.1 L 929.77 210.26 M 929.77 210.26 L 1018.87 139.74 M 1018.87 139.74 L 1025.07 147.58 M 1025.07 147.58 L 935.97 218.1"/>
    <path d="M 180.92 322.6 L 177.02 313.39 M 177.02 313.39 L 419.83 210.58 M 419.83 210.58 L 423.73 219.79 M 423.73 219.79 L 180.92 322.6"/>
    <path d="M 331.56 322.35 L 326.64 313.64 M 326.64 313.64 L 508.76 210.83 M 508.76 210.83 L 513.67 219.54 M 513.67 219.54 L 331.56 322.35"/>
    <path d="M 482.47 321.81 L 476.01 314.18 M 476.01 314.18 L 597.42 211.37 M 597.42 211.37 L 603.88 219 M 603.88 219 L 482.47 321.81"/>
    <path d="M 633.68 320.54 L 625.07 315.45 M 625.07 315.45 L 685.77 212.64 M 685.77 212.64 L 694.39 217.73 M 694.39 217.73 L 633.68 320.54"/>
    <path d="M 774.51 215.18 H 784.51 V 318 H 774.51 Z"/>
    <path d="M 925.34 320.54 L 864.64 217.73 M 864.64 217.73 L 873.25 212.64 M 873.25 212.64 L 933.95 315.45 M 933.95 315.45 L 925.34 320.54"/>
    <path d="M 1076.55 321.81 L 955.14 219 M 955.14 219 L 961.61 211.37 M 961.61 211.37 L 1083.02 314.18 M 1083.02 314.18 L 1076.55 321.81"/>
    <path d="M 1227.46 322.35 L 1045.35 219.54 M 1045.35 219.54 L 1050.27 210.83 M 1050.27 210.83 L 1232.38 313.64 M 1232.38 313.64 L 1227.46 322.35"/>
    <path d="M 1378.11 322.6 L 1135.29 219.79 M 1135.29 219.79 L 1139.19 210.58 M 1139.19 210.58 L 1382.01 313.39 M 1382.01 313.39 L 1378.11 322.6"/>
    <path d="M 769.89 3384.83 L 767.99 3384.04 M 767.99 3384.04 L 85.2 3100.37 M 85.2 3100.37 L 89.03 3091.14 M 89.03 3091.14 L 769.93 3374.02 M 769.93 3374.02 L 1462.83 3092.12 M 1462.83 3092.12 L 1466.59 3101.39 M 1466.59 3101.39 L 769.89 3384.83"/>
    <path d="M 12.28 3412.96 L 5.19 3405.89 M 5.19 3405.89 L 214.39 3196.04 M 214.39 3196.04 L 221.47 3203.1 M 221.47 3203.1 L 12.28 3412.96"/>
    <path d="M 0 3411.11 L 0 3415.75 M 0 3415.75 L 9.49 3415.75 M 9.49 3415.75 L 218.17 3206.4 M 218.17 3206.4 L 445.83 3404.2 M 445.83 3404.2 L 452.39 3396.65 M 452.39 3396.65 L 217.68 3192.73 M 217.68 3192.73 L 0 3411.11"/>
    <path d="M 0 3278.44 L 0 3289.16 M 0 3289.16 L 212.93 3206.86 M 212.93 3206.86 L 212.93 3409.42 M 212.93 3409.42 L 222.93 3409.42 M 222.93 3409.42 L 222.93 3192.27 M 222.93 3192.27 L 0 3278.44"/>
    <path d="M 0 3411.11 L 0 3415.75 M 0 3415.75 L 9.49 3415.75 M 9.49 3415.75 L 218.17 3206.4 M 218.17 3206.4 L 450.14 3407.94 M 450.14 3407.94 L 509.05 3318.77 M 509.05 3318.77 L 500.71 3313.26 M 500.71 3313.26 L 448.08 3392.91 M 448.08 3392.91 L 217.68 3192.73 M 217.68 3192.73 L 0 3411.11"/>
    <path d="M 0 3278.44 L 0 3289.16 M 0 3289.16 L 212.93 3206.86 M 212.93 3206.86 L 212.93 3415.75 M 212.93 3415.75 L 222.93 3415.75 M 222.93 3415.75 L 222.93 3192.27 M 222.93 3192.27 L 0 3278.44"/>
    <path d="M 1098.54 3393.98 L 1038.85 3307.51 M 1038.85 3307.51 L 1030.62 3313.19 M 1030.62 3313.19 L 1096.66 3408.87 M 1096.66 3408.87 L 1328.54 3207.4 M 1328.54 3207.4 L 1536.22 3415.75 M 1536.22 3415.75 L 1550.34 3415.75 M 1550.34 3415.75 L 1329.03 3193.73 M 1329.03 3193.73 L 1098.54 3393.98"/>
    <path d="M 1323.78 3415.75 L 1333.78 3415.75 M 1333.78 3415.75 L 1333.78 3207.86 M 1333.78 3207.86 L 1550.55 3291.65 M 1550.55 3291.65 L 1550.55 3280.93 M 1550.55 3280.93 L 1323.78 3193.27 M 1323.78 3193.27 L 1323.78 3415.75"/>
    <path d="M 85.2 3137.37 L 755.26 3415.75 M 755.26 3415.75 L 784.84 3415.75 M 784.84 3415.75 L 1466.59 3138.39 M 1466.59 3138.39 L 1462.83 3129.12 M 1462.83 3129.12 L 769.93 3411.02 M 769.93 3411.02 L 89.03 3128.14 M 89.03 3128.14 L 85.2 3137.37"/>
    <path d="M 728.97 3291.45 L 769.99 3359.54 M 769.99 3359.54 L 811.02 3291.45 M 811.02 3291.45 L 769.99 3219.86 M 769.99 3219.86 L 728.97 3291.45 M 769.99 3378.92 L 717.37 3291.58 M 717.37 3291.58 L 769.99 3199.74 M 769.99 3199.74 L 822.62 3291.58 M 822.62 3291.58 L 769.99 3378.92"/>
    <path d="M 765.25 3277.77 L 775.97 3354.38 M 775.97 3354.38 L 843.13 3304.94 M 843.13 3304.94 L 901.83 3226.35 M 901.83 3226.35 L 765.25 3277.77 M 768.39 3372.38 L 754.24 3271.23 M 754.24 3271.23 L 930.29 3204.95 M 930.29 3204.95 L 850.26 3312.12 M 850.26 3312.12 L 849.66 3312.56 M 849.66 3312.56 L 768.39 3372.38"/>
    <path d="M 697.07 3304.94 L 764.23 3354.38 M 764.23 3354.38 L 774.95 3277.77 M 774.95 3277.77 L 638.38 3226.35 M 638.38 3226.35 L 697.07 3304.94 M 771.81 3372.38 L 689.95 3312.12 M 689.95 3312.12 L 609.91 3204.95 M 609.91 3204.95 L 785.96 3271.23 M 785.96 3271.23 L 771.81 3372.38"/>
    <path d="M 1012.48 3281.06 L 924.54 3213.77 M 924.54 3213.77 L 930.62 3205.83 M 930.62 3205.83 L 1018.55 3273.12 M 1018.55 3273.12 L 1012.48 3281.06"/>
    <path d="M 528.11 3280.78 L 521.37 3273.39 M 521.37 3273.39 L 606.38 3195.87 M 606.38 3195.87 L 613.12 3203.26 M 613.12 3203.26 L 528.11 3280.78"/>
    <path d="M 1126.88 3204.17 L 1122.98 3194.96 M 1122.98 3194.96 L 1365.8 3092.15 M 1365.8 3092.15 L 1369.7 3101.36 M 1369.7 3101.36 L 1126.88 3204.17"/>
    <path d="M 1037.95 3203.92 L 1033.04 3195.21 M 1033.04 3195.21 L 1215.15 3092.4 M 1215.15 3092.4 L 1220.07 3101.11 M 1220.07 3101.11 L 1037.95 3203.92"/>
    <path d="M 949.3 3203.38 L 942.83 3195.75 M 942.83 3195.75 L 1064.24 3092.94 M 1064.24 3092.94 L 1070.71 3100.57 M 1070.71 3100.57 L 949.3 3203.38"/>
    <path d="M 860.94 3202.11 L 852.33 3197.02 M 852.33 3197.02 L 913.03 3094.21 M 913.03 3094.21 L 921.64 3099.29 M 921.64 3099.29 L 860.94 3202.11"/>
    <path d="M 762.2 3096.75 H 772.2 V 3199.57 H 762.2 Z"/>
    <path d="M 673.46 3202.11 L 612.76 3099.29 M 612.76 3099.29 L 621.37 3094.21 M 621.37 3094.21 L 682.08 3197.02 M 682.08 3197.02 L 673.46 3202.11"/>
    <path d="M 585.11 3203.38 L 463.7 3100.57 M 463.7 3100.57 L 470.16 3092.94 M 470.16 3092.94 L 591.57 3195.75 M 591.57 3195.75 L 585.11 3203.38"/>
    <path d="M 496.45 3203.92 L 314.33 3101.11 M 314.33 3101.11 L 319.25 3092.4 M 319.25 3092.4 L 501.36 3195.21 M 501.36 3195.21 L 496.45 3203.92"/>
    <path d="M 407.52 3204.17 L 164.71 3101.36 M 164.71 3101.36 L 168.61 3092.15 M 168.61 3092.15 L 411.42 3194.96 M 411.42 3194.96 L 407.52 3204.17"/>
    <path d="M 82.11 3095.75 H 92.11 V 3200.57 H 82.11 Z"/>
    <path d="M 1461.49 3095.75 H 1471.49 V 3200.57 H 1461.49 Z"/>
    <path d="M 92.11 323 H 1461.49 V 3090.75 H 92.11 Z M 82.11 313 H 1471.49 V 3100.75 H 82.11 Z"/>
    <path d="M 468.27 733.86 L 468.27 773.09 M 468.27 773.09 L 487.89 773.09 M 487.89 773.09 C 490.58 773.09 493.11 772.58 495.48 771.56 M 495.48 771.56 C 497.85 770.53 499.92 769.13 501.7 767.35 M 501.7 767.35 C 503.48 765.58 504.88 763.49 505.9 761.1 M 505.9 761.1 C 506.93 758.71 507.44 756.17 507.44 753.48 M 507.44 753.48 C 507.44 750.79 506.93 748.25 505.9 745.85 M 505.9 745.85 C 504.88 743.46 503.48 741.38 501.7 739.6 M 501.7 739.6 C 499.92 737.82 497.85 736.42 495.48 735.39 M 495.48 735.39 C 493.11 734.37 490.58 733.86 487.89 733.86 M 487.89 733.86 L 468.27 733.86 M 468.27 812.26 L 448.65 812.26 M 448.65 812.26 L 448.65 714.24 M 448.65 714.24 L 487.89 714.24 M 487.89 714.24 C 491.49 714.24 494.96 714.71 498.28 715.64 M 498.28 715.64 C 501.61 716.57 504.72 717.89 507.61 719.6 M 507.61 719.6 C 510.51 721.31 513.15 723.36 515.54 725.76 M 515.54 725.76 C 517.94 728.15 519.99 730.8 521.7 733.72 M 521.7 733.72 C 523.4 736.64 524.73 739.76 525.66 743.09 M 525.66 743.09 C 526.59 746.41 527.06 749.88 527.06 753.48 M 527.06 753.48 C 527.06 758.85 526.04 763.92 523.99 768.69 M 523.99 768.69 C 521.93 773.45 519.13 777.61 515.58 781.16 M 515.58 781.16 C 512.02 784.72 507.86 787.52 503.1 789.57 M 503.1 789.57 C 498.34 791.62 493.27 792.65 487.89 792.65 M 487.89 792.65 L 468.27 792.65 M 468.27 792.65 L 468.27 812.26"/>
    <path d="M 608.54 812.26 L 541.35 812.26 M 541.35 812.26 L 541.35 714.24 M 541.35 714.24 L 608.54 714.24 M 608.54 714.24 L 608.54 733.86 M 608.54 733.86 L 560.97 733.86 M 560.97 733.86 L 560.97 753.48 M 560.97 753.48 L 593.16 753.48 M 593.16 753.48 L 593.16 773.09 M 593.16 773.09 L 560.97 773.09 M 560.97 773.09 L 560.97 792.65 M 560.97 792.65 L 608.54 792.65 M 608.54 792.65 L 608.54 812.26"/>
    <path d="M 684.01 763.25 C 684.01 759.2 683.25 755.39 681.72 751.84 M 681.72 751.84 C 680.19 748.28 678.1 745.17 675.43 742.5 M 675.43 742.5 C 672.76 739.84 669.64 737.73 666.07 736.18 M 666.07 736.18 C 662.49 734.63 658.67 733.86 654.61 733.86 M 654.61 733.86 L 644.84 733.86 M 644.84 733.86 L 644.84 792.65 M 644.84 792.65 L 654.61 792.65 M 654.61 792.65 C 658.67 792.65 662.49 791.88 666.07 790.36 M 666.07 790.36 C 669.64 788.83 672.76 786.73 675.43 784.07 M 675.43 784.07 C 678.1 781.4 680.19 778.28 681.72 774.7 M 681.72 774.7 C 683.25 771.12 684.01 767.31 684.01 763.25 M 703.63 763.25 C 703.63 767.76 703.05 772.1 701.89 776.27 M 701.89 776.27 C 700.72 780.44 699.07 784.34 696.93 787.96 M 696.93 787.96 C 694.79 791.59 692.24 794.89 689.27 797.88 M 689.27 797.88 C 686.31 800.86 683.01 803.42 679.36 805.57 M 679.36 805.57 C 675.71 807.71 671.81 809.36 667.64 810.52 M 667.64 810.52 C 663.47 811.68 659.13 812.27 654.61 812.27 M 654.61 812.27 L 625.08 812.27 M 625.08 812.27 L 625.08 714.24 M 625.08 714.24 L 654.61 714.24 M 654.61 714.24 C 659.13 714.24 663.47 714.82 667.64 715.98 M 667.64 715.98 C 671.81 717.14 675.71 718.8 679.36 720.94 M 679.36 720.94 C 683.01 723.08 686.31 725.64 689.27 728.63 M 689.27 728.63 C 692.24 731.61 694.79 734.92 696.93 738.54 M 696.93 738.54 C 699.07 742.16 700.72 746.06 701.89 750.23 M 701.89 750.23 C 703.05 754.4 703.63 758.74 703.63 763.25"/>
    <path d="M 719.42 714.24 H 739.04 V 812.26 H 719.42 Z"/>
    <path d="M 779.64 812.26 L 760.02 812.26 M 760.02 812.26 L 760.02 714.24 M 760.02 714.24 L 779.64 714.24 M 779.64 714.24 L 779.64 763.25 M 779.64 763.25 L 816.14 714.24 M 816.14 714.24 L 838.43 714.24 M 838.43 714.24 L 807.46 755.59 M 807.46 755.59 L 838.43 812.26 M 838.43 812.26 L 816.14 812.26 M 816.14 812.26 L 794.61 772.62 M 794.61 772.62 L 779.64 792.65 M 779.64 792.65 L 779.64 812.26"/>
    <path d="M 927.63 773.09 C 927.63 778.52 926.61 783.61 924.56 788.37 M 924.56 788.37 C 922.51 793.14 919.7 797.28 916.15 800.81 M 916.15 800.81 C 912.6 804.35 908.44 807.14 903.67 809.19 M 903.67 809.19 C 898.91 811.24 893.82 812.26 888.4 812.26 M 888.4 812.26 C 882.97 812.26 877.88 811.24 873.12 809.19 M 873.12 809.19 C 868.36 807.14 864.21 804.35 860.68 800.81 M 860.68 800.81 C 857.14 797.28 854.35 793.14 852.3 788.37 M 852.3 788.37 C 850.25 783.61 849.23 778.52 849.23 773.09 M 849.23 773.09 L 849.23 714.24 M 849.23 714.24 L 868.78 714.24 M 868.78 714.24 L 868.78 773.09 M 868.78 773.09 C 868.78 775.78 869.29 778.31 870.32 780.68 M 870.32 780.68 C 871.34 783.05 872.74 785.13 874.52 786.9 M 874.52 786.9 C 876.3 788.68 878.38 790.08 880.77 791.11 M 880.77 791.11 C 883.17 792.13 885.71 792.65 888.4 792.65 M 888.4 792.65 C 891.08 792.65 893.63 792.13 896.02 791.11 M 896.02 791.11 C 898.41 790.08 900.5 788.68 902.27 786.9 M 902.27 786.9 C 904.05 785.13 905.45 783.05 906.48 780.68 M 906.48 780.68 C 907.5 778.31 908.02 775.78 908.02 773.09 M 908.02 773.09 L 908.02 714.24 M 908.02 714.24 L 927.63 714.24 M 927.63 714.24 L 927.63 773.09"/>
    <path d="M 967.08 733.86 L 967.08 773.09 M 967.08 773.09 L 986.69 773.09 M 986.69 773.09 C 989.38 773.09 991.91 772.58 994.28 771.56 M 994.28 771.56 C 996.65 770.53 998.73 769.13 1000.5 767.35 M 1000.5 767.35 C 1002.28 765.58 1003.68 763.49 1004.71 761.1 M 1004.71 761.1 C 1005.73 758.71 1006.25 756.17 1006.25 753.48 M 1006.25 753.48 C 1006.25 750.79 1005.73 748.25 1004.71 745.85 M 1004.71 745.85 C 1003.68 743.46 1002.28 741.38 1000.5 739.6 M 1000.5 739.6 C 998.73 737.82 996.65 736.42 994.28 735.39 M 994.28 735.39 C 991.91 734.37 989.38 733.86 986.69 733.86 M 986.69 733.86 L 967.08 733.86 M 967.08 812.26 L 947.46 812.26 M 947.46 812.26 L 947.46 714.24 M 947.46 714.24 L 986.69 714.24 M 986.69 714.24 C 990.29 714.24 993.76 714.71 997.09 715.64 M 997.09 715.64 C 1000.41 716.57 1003.52 717.89 1006.42 719.6 M 1006.42 719.6 C 1009.31 721.31 1011.95 723.36 1014.35 725.76 M 1014.35 725.76 C 1016.74 728.15 1018.79 730.8 1020.5 733.72 M 1020.5 733.72 C 1022.21 736.64 1023.53 739.76 1024.46 743.09 M 1024.46 743.09 C 1025.4 746.41 1025.86 749.88 1025.86 753.48 M 1025.86 753.48 C 1025.86 756.85 1025.44 760.13 1024.6 763.32 M 1024.6 763.32 C 1023.76 766.51 1022.55 769.54 1020.98 772.41 M 1020.98 772.41 C 1019.4 775.28 1017.48 777.93 1015.2 780.34 M 1015.2 780.34 C 1012.92 782.76 1010.37 784.85 1007.54 786.63 M 1007.54 786.63 L 1018.41 812.26 M 1018.41 812.26 L 997.56 812.26 M 997.56 812.26 L 989.02 792.51 M 989.02 792.51 L 967.08 792.65 M 967.08 792.65 L 967.08 812.26"/>
    <path d="M 1099.21 773.09 L 1099.21 753.48 M 1099.21 753.48 C 1099.21 750.79 1098.7 748.25 1097.67 745.85 M 1097.67 745.85 C 1096.65 743.46 1095.25 741.38 1093.47 739.6 M 1093.47 739.6 C 1091.69 737.82 1089.61 736.42 1087.21 735.39 M 1087.21 735.39 C 1084.82 734.37 1082.28 733.86 1079.59 733.86 M 1079.59 733.86 C 1076.9 733.86 1074.36 734.37 1071.97 735.39 M 1071.97 735.39 C 1069.58 736.42 1067.49 737.82 1065.71 739.6 M 1065.71 739.6 C 1063.94 741.38 1062.54 743.46 1061.51 745.85 M 1061.51 745.85 C 1060.48 748.25 1059.97 750.79 1059.97 753.48 M 1059.97 753.48 L 1059.97 773.09 M 1059.97 773.09 L 1099.21 773.09 M 1118.83 812.26 L 1099.21 812.26 M 1099.21 812.26 L 1099.21 792.65 M 1099.21 792.65 L 1059.97 792.65 M 1059.97 792.65 L 1059.97 812.26 M 1059.97 812.26 L 1040.42 812.26 M 1040.42 812.26 L 1040.42 753.48 M 1040.42 753.48 C 1040.42 748.05 1041.45 742.96 1043.5 738.2 M 1043.5 738.2 C 1045.55 733.44 1048.34 729.28 1051.87 725.72 M 1051.87 725.72 C 1055.4 722.17 1059.55 719.36 1064.31 717.31 M 1064.31 717.31 C 1069.07 715.26 1074.17 714.24 1079.59 714.24 M 1079.59 714.24 C 1085.01 714.24 1090.11 715.26 1094.87 717.31 M 1094.87 717.31 C 1099.63 719.36 1103.79 722.17 1107.35 725.72 M 1107.35 725.72 C 1110.9 729.28 1113.7 733.44 1115.75 738.2 M 1115.75 738.2 C 1117.8 742.96 1118.83 748.05 1118.83 753.48 M 1118.83 753.48 L 1118.83 812.26"/>
    <path d="M 502.97 1182.35 C 498.41 1186.23 493.33 1189.2 487.72 1191.27 M 487.72 1191.27 C 482.12 1193.35 476.28 1194.38 470.22 1194.38 M 470.22 1194.38 C 465.57 1194.38 461.1 1193.78 456.79 1192.57 M 456.79 1192.57 C 452.48 1191.37 448.46 1189.66 444.72 1187.45 M 444.72 1187.45 C 440.99 1185.24 437.57 1182.59 434.47 1179.52 M 434.47 1179.52 C 431.37 1176.44 428.73 1173.02 426.54 1169.26 M 426.54 1169.26 C 424.35 1165.5 422.65 1161.46 421.45 1157.13 M 421.45 1157.13 C 420.24 1152.8 419.64 1148.31 419.64 1143.66 M 419.64 1143.66 C 419.64 1139.01 420.24 1134.55 421.45 1130.26 M 421.45 1130.26 C 422.65 1125.98 424.35 1121.96 426.54 1118.2 M 426.54 1118.2 C 428.73 1114.44 431.37 1111.02 434.47 1107.94 M 434.47 1107.94 C 437.57 1104.87 440.99 1102.24 444.72 1100.05 M 444.72 1100.05 C 448.46 1097.86 452.48 1096.16 456.79 1094.96 M 456.79 1094.96 C 461.1 1093.75 465.57 1093.14 470.22 1093.14 M 470.22 1093.14 C 476.28 1093.14 482.12 1094.18 487.72 1096.25 M 487.72 1096.25 C 493.33 1098.33 498.41 1101.3 502.97 1105.17 M 502.97 1105.17 L 492.71 1122.26 M 492.71 1122.26 C 489.75 1119.26 486.33 1116.9 482.46 1115.19 M 482.46 1115.19 C 478.58 1113.48 474.51 1112.63 470.22 1112.63 M 470.22 1112.63 C 465.94 1112.63 461.92 1113.45 458.16 1115.09 M 458.16 1115.09 C 454.4 1116.73 451.1 1118.95 448.28 1121.75 M 448.28 1121.75 C 445.45 1124.55 443.22 1127.84 441.58 1131.6 M 441.58 1131.6 C 439.94 1135.36 439.12 1139.38 439.12 1143.66 M 439.12 1143.66 C 439.12 1147.99 439.94 1152.05 441.58 1155.83 M 441.58 1155.83 C 443.22 1159.61 445.45 1162.92 448.28 1165.74 M 448.28 1165.74 C 451.1 1168.57 454.4 1170.8 458.16 1172.44 M 458.16 1172.44 C 461.92 1174.08 465.94 1174.9 470.22 1174.9 M 470.22 1174.9 C 472.68 1174.9 475.08 1174.61 477.4 1174.01 M 477.4 1174.01 C 479.72 1173.42 481.93 1172.6 484.03 1171.55 M 484.03 1171.55 L 484.03 1143.66 M 484.03 1143.66 L 502.97 1143.66 M 502.97 1143.66 L 502.97 1182.35"/>
    <path d="M 588.07 1192.26 L 520.87 1192.26 M 520.87 1192.26 L 520.87 1094.24 M 520.87 1094.24 L 588.07 1094.24 M 588.07 1094.24 L 588.07 1113.86 M 588.07 1113.86 L 540.49 1113.86 M 540.49 1113.86 L 540.49 1133.48 M 540.49 1133.48 L 572.69 1133.48 M 572.69 1133.48 L 572.69 1153.09 M 572.69 1153.09 L 540.49 1153.09 M 540.49 1153.09 L 540.49 1172.65 M 540.49 1172.65 L 588.07 1172.65 M 588.07 1172.65 L 588.07 1192.26"/>
    <path d="M 673.24 1192.26 L 604.61 1192.26 M 604.61 1192.26 L 604.61 1094.24 M 604.61 1094.24 L 624.23 1094.24 M 624.23 1094.24 L 624.23 1172.65 M 624.23 1172.65 L 673.24 1172.65 M 673.24 1172.65 L 673.24 1192.26"/>
    <path d="M 686.23 1094.24 H 705.85 V 1192.26 H 686.23 Z"/>
    <path d="M 746.45 1113.86 L 746.45 1153.09 M 746.45 1153.09 L 766.07 1153.09 M 766.07 1153.09 C 768.76 1153.09 771.29 1152.58 773.66 1151.56 M 773.66 1151.56 C 776.03 1150.53 778.1 1149.13 779.88 1147.35 M 779.88 1147.35 C 781.66 1145.58 783.06 1143.49 784.08 1141.1 M 784.08 1141.1 C 785.11 1138.71 785.62 1136.17 785.62 1133.48 M 785.62 1133.48 C 785.62 1130.79 785.11 1128.25 784.08 1125.85 M 784.08 1125.85 C 783.06 1123.46 781.66 1121.38 779.88 1119.6 M 779.88 1119.6 C 778.1 1117.82 776.03 1116.42 773.66 1115.39 M 773.66 1115.39 C 771.29 1114.37 768.76 1113.86 766.07 1113.86 M 766.07 1113.86 L 746.45 1113.86 M 746.45 1192.26 L 726.83 1192.26 M 726.83 1192.26 L 726.83 1094.24 M 726.83 1094.24 L 766.07 1094.24 M 766.07 1094.24 C 769.67 1094.24 773.13 1094.71 776.46 1095.64 M 776.46 1095.64 C 779.79 1096.57 782.9 1097.89 785.79 1099.6 M 785.79 1099.6 C 788.69 1101.31 791.33 1103.36 793.72 1105.76 M 793.72 1105.76 C 796.11 1108.15 798.17 1110.8 799.87 1113.72 M 799.87 1113.72 C 801.58 1116.64 802.9 1119.76 803.84 1123.09 M 803.84 1123.09 C 804.77 1126.41 805.24 1129.88 805.24 1133.48 M 805.24 1133.48 C 805.24 1136.85 804.82 1140.13 803.98 1143.32 M 803.98 1143.32 C 803.13 1146.51 801.93 1149.54 800.35 1152.41 M 800.35 1152.41 C 798.78 1155.28 796.86 1157.93 794.58 1160.34 M 794.58 1160.34 C 792.3 1162.76 789.75 1164.85 786.92 1166.63 M 786.92 1166.63 L 797.79 1192.26 M 797.79 1192.26 L 776.94 1192.26 M 776.94 1192.26 L 768.39 1172.51 M 768.39 1172.51 L 746.45 1172.65 M 746.45 1172.65 L 746.45 1192.26"/>
    <path d="M 878.59 1153.09 L 878.59 1133.48 M 878.59 1133.48 C 878.59 1130.79 878.07 1128.25 877.05 1125.85 M 877.05 1125.85 C 876.02 1123.46 874.62 1121.38 872.85 1119.6 M 872.85 1119.6 C 871.07 1117.82 868.98 1116.42 866.59 1115.4 M 866.59 1115.4 C 864.2 1114.37 861.66 1113.86 858.97 1113.86 M 858.97 1113.86 C 856.28 1113.86 853.74 1114.37 851.35 1115.4 M 851.35 1115.4 C 848.95 1116.42 846.87 1117.82 845.09 1119.6 M 845.09 1119.6 C 843.31 1121.38 841.91 1123.46 840.89 1125.85 M 840.89 1125.85 C 839.86 1128.25 839.35 1130.79 839.35 1133.48 M 839.35 1133.48 L 839.35 1153.09 M 839.35 1153.09 L 878.59 1153.09 M 898.21 1192.27 L 878.59 1192.27 M 878.59 1192.27 L 878.59 1172.65 M 878.59 1172.65 L 839.35 1172.65 M 839.35 1172.65 L 839.35 1192.27 M 839.35 1192.27 L 819.8 1192.27 M 819.8 1192.27 L 819.8 1133.48 M 819.8 1133.48 C 819.8 1128.05 820.82 1122.96 822.87 1118.2 M 822.87 1118.2 C 824.93 1113.44 827.72 1109.28 831.25 1105.72 M 831.25 1105.72 C 834.78 1102.17 838.93 1099.36 843.69 1097.31 M 843.69 1097.31 C 848.45 1095.26 853.54 1094.24 858.97 1094.24 M 858.97 1094.24 C 864.39 1094.24 869.48 1095.26 874.25 1097.31 M 874.25 1097.31 C 879.01 1099.36 883.17 1102.17 886.72 1105.72 M 886.72 1105.72 C 890.28 1109.28 893.08 1113.44 895.13 1118.2 M 895.13 1118.2 C 897.18 1122.96 898.21 1128.05 898.21 1133.48 M 898.21 1133.48 L 898.21 1192.27"/>
    <path d="M 996.44 1192.26 L 975.45 1192.26 M 975.45 1192.26 L 937.65 1127.73 M 937.65 1127.73 L 937.65 1192.26 M 937.65 1192.26 L 918.03 1192.26 M 918.03 1192.26 L 918.03 1094.24 M 918.03 1094.24 L 939.01 1094.24 M 939.01 1094.24 L 976.82 1158.84 M 976.82 1158.84 L 976.82 1094.24 M 976.82 1094.24 L 996.44 1094.24 M 996.44 1094.24 L 996.44 1192.26"/>
    <path d="M 1058.71 1153.09 C 1058.71 1158.52 1057.68 1163.61 1055.63 1168.37 M 1055.63 1168.37 C 1053.58 1173.14 1050.79 1177.28 1047.26 1180.81 M 1047.26 1180.81 C 1043.73 1184.35 1039.58 1187.14 1034.82 1189.19 M 1034.82 1189.19 C 1030.06 1191.24 1024.96 1192.27 1019.54 1192.27 M 1019.54 1192.27 C 1016.26 1192.27 1012.98 1191.85 1009.7 1191.03 M 1009.7 1191.03 L 1009.7 1169.98 M 1009.7 1169.98 C 1011.15 1170.85 1012.73 1171.51 1014.41 1171.96 M 1014.41 1171.96 C 1016.1 1172.42 1017.81 1172.65 1019.54 1172.65 M 1019.54 1172.65 C 1022.23 1172.65 1024.77 1172.13 1027.16 1171.11 M 1027.16 1171.11 C 1029.55 1170.08 1031.64 1168.68 1033.42 1166.9 M 1033.42 1166.9 C 1035.19 1165.13 1036.6 1163.05 1037.62 1160.68 M 1037.62 1160.68 C 1038.65 1158.31 1039.16 1155.78 1039.16 1153.09 M 1039.16 1153.09 L 1039.16 1094.24 M 1039.16 1094.24 L 1058.71 1094.24 M 1058.71 1094.24 L 1058.71 1153.09"/>
    <path d="M 1145.8 1192.26 L 1078.6 1192.26 M 1078.6 1192.26 L 1078.6 1094.24 M 1078.6 1094.24 L 1145.8 1094.24 M 1145.8 1094.24 L 1145.8 1113.86 M 1145.8 1113.86 L 1098.22 1113.86 M 1098.22 1113.86 L 1098.22 1133.48 M 1098.22 1133.48 L 1130.42 1133.48 M 1130.42 1133.48 L 1130.42 1153.09 M 1130.42 1153.09 L 1098.22 1153.09 M 1098.22 1153.09 L 1098.22 1172.65 M 1098.22 1172.65 L 1145.8 1172.65 M 1145.8 1172.65 L 1145.8 1192.26"/>
    <path d="M 441.24 1572.27 L 421.69 1572.27 M 421.69 1572.27 L 421.69 1493.86 M 421.69 1493.86 L 392.23 1493.86 M 392.23 1493.86 L 392.23 1474.24 M 392.23 1474.24 L 470.63 1474.24 M 470.63 1474.24 L 470.63 1493.86 M 470.63 1493.86 L 441.24 1493.86 M 441.24 1493.86 L 441.24 1572.27"/>
    <path d="M 503.44 1493.86 L 503.44 1533.09 M 503.44 1533.09 L 523.06 1533.09 M 523.06 1533.09 C 525.75 1533.09 528.28 1532.58 530.65 1531.56 M 530.65 1531.56 C 533.02 1530.53 535.09 1529.13 536.87 1527.35 M 536.87 1527.35 C 538.65 1525.58 540.05 1523.49 541.08 1521.1 M 541.08 1521.1 C 542.1 1518.71 542.61 1516.17 542.61 1513.48 M 542.61 1513.48 C 542.61 1510.79 542.1 1508.25 541.08 1505.85 M 541.08 1505.85 C 540.05 1503.46 538.65 1501.38 536.87 1499.6 M 536.87 1499.6 C 535.09 1497.82 533.02 1496.42 530.65 1495.39 M 530.65 1495.39 C 528.28 1494.37 525.75 1493.86 523.06 1493.86 M 523.06 1493.86 L 503.44 1493.86 M 503.44 1572.26 L 483.82 1572.26 M 483.82 1572.26 L 483.82 1474.24 M 483.82 1474.24 L 523.06 1474.24 M 523.06 1474.24 C 526.66 1474.24 530.13 1474.71 533.45 1475.64 M 533.45 1475.64 C 536.78 1476.57 539.89 1477.89 542.78 1479.6 M 542.78 1479.6 C 545.68 1481.31 548.32 1483.36 550.71 1485.76 M 550.71 1485.76 C 553.11 1488.15 555.16 1490.8 556.87 1493.72 M 556.87 1493.72 C 558.58 1496.64 559.9 1499.76 560.83 1503.09 M 560.83 1503.09 C 561.76 1506.41 562.23 1509.88 562.23 1513.48 M 562.23 1513.48 C 562.23 1516.85 561.81 1520.13 560.97 1523.32 M 560.97 1523.32 C 560.12 1526.51 558.92 1529.54 557.34 1532.41 M 557.34 1532.41 C 555.77 1535.28 553.85 1537.93 551.57 1540.34 M 551.57 1540.34 C 549.29 1542.76 546.74 1544.85 543.91 1546.63 M 543.91 1546.63 L 554.78 1572.26 M 554.78 1572.26 L 533.93 1572.26 M 533.93 1572.26 L 525.39 1552.51 M 525.39 1552.51 L 503.44 1552.65 M 503.44 1552.65 L 503.44 1572.26"/>
    <path d="M 635.58 1533.1 L 635.58 1513.48 M 635.58 1513.48 C 635.58 1510.79 635.07 1508.25 634.04 1505.85 M 634.04 1505.85 C 633.02 1503.46 631.61 1501.38 629.84 1499.6 M 629.84 1499.6 C 628.06 1497.82 625.98 1496.42 623.58 1495.4 M 623.58 1495.4 C 621.19 1494.37 618.65 1493.86 615.96 1493.86 M 615.96 1493.86 C 613.27 1493.86 610.73 1494.37 608.34 1495.4 M 608.34 1495.4 C 605.95 1496.42 603.86 1497.82 602.08 1499.6 M 602.08 1499.6 C 600.31 1501.38 598.9 1503.46 597.88 1505.85 M 597.88 1505.85 C 596.85 1508.25 596.34 1510.79 596.34 1513.48 M 596.34 1513.48 L 596.34 1533.1 M 596.34 1533.1 L 635.58 1533.1 M 655.2 1572.27 L 635.58 1572.27 M 635.58 1572.27 L 635.58 1552.65 M 635.58 1552.65 L 596.34 1552.65 M 596.34 1552.65 L 596.34 1572.27 M 596.34 1572.27 L 576.79 1572.27 M 576.79 1572.27 L 576.79 1513.48 M 576.79 1513.48 C 576.79 1508.05 577.82 1502.96 579.87 1498.2 M 579.87 1498.2 C 581.92 1493.44 584.71 1489.28 588.24 1485.72 M 588.24 1485.72 C 591.77 1482.17 595.92 1479.37 600.68 1477.31 M 600.68 1477.31 C 605.44 1475.26 610.54 1474.24 615.96 1474.24 M 615.96 1474.24 C 621.38 1474.24 626.48 1475.26 631.24 1477.31 M 631.24 1477.31 C 636 1479.37 640.16 1482.17 643.71 1485.72 M 643.71 1485.72 C 647.27 1489.28 650.07 1493.44 652.12 1498.2 M 652.12 1498.2 C 654.17 1502.96 655.2 1508.05 655.2 1513.48 M 655.2 1513.48 L 655.2 1572.27"/>
    <path d="M 716.31 1533.1 C 716.31 1538.52 715.28 1543.61 713.23 1548.37 M 713.23 1548.37 C 711.18 1553.14 708.39 1557.28 704.86 1560.82 M 704.86 1560.82 C 701.33 1564.35 697.18 1567.14 692.42 1569.19 M 692.42 1569.19 C 687.66 1571.24 682.56 1572.27 677.14 1572.27 M 677.14 1572.27 C 673.86 1572.27 670.58 1571.86 667.3 1571.03 M 667.3 1571.03 L 667.3 1549.98 M 667.3 1549.98 C 668.75 1550.85 670.33 1551.51 672.01 1551.96 M 672.01 1551.96 C 673.7 1552.42 675.41 1552.65 677.14 1552.65 M 677.14 1552.65 C 679.83 1552.65 682.37 1552.13 684.76 1551.11 M 684.76 1551.11 C 687.15 1550.08 689.24 1548.68 691.02 1546.9 M 691.02 1546.9 C 692.79 1545.13 694.2 1543.05 695.22 1540.68 M 695.22 1540.68 C 696.25 1538.31 696.76 1535.78 696.76 1533.1 M 696.76 1533.1 L 696.76 1474.24 M 696.76 1474.24 L 716.31 1474.24 M 716.31 1474.24 L 716.31 1533.1"/>
    <path d="M 814.61 1572.27 L 793.62 1572.27 M 793.62 1572.27 L 755.82 1507.73 M 755.82 1507.73 L 755.82 1572.27 M 755.82 1572.27 L 736.2 1572.27 M 736.2 1572.27 L 736.2 1474.24 M 736.2 1474.24 L 757.19 1474.24 M 757.19 1474.24 L 794.99 1538.84 M 794.99 1538.84 L 794.99 1474.24 M 794.99 1474.24 L 814.61 1474.24 M 814.61 1474.24 L 814.61 1572.27"/>
    <path d="M 835.59 1474.24 H 855.21 V 1572.27 H 835.59 Z"/>
    <path d="M 986.8 1572.27 L 918.16 1572.27 M 918.16 1572.27 L 918.16 1474.24 M 918.16 1474.24 L 937.78 1474.24 M 937.78 1474.24 L 937.78 1552.65 M 937.78 1552.65 L 986.8 1552.65 M 986.8 1552.65 L 986.8 1572.27"/>
    <path d="M 1057.48 1533.1 L 1057.48 1513.48 M 1057.48 1513.48 C 1057.48 1510.79 1056.96 1508.25 1055.94 1505.85 M 1055.94 1505.85 C 1054.91 1503.46 1053.51 1501.38 1051.74 1499.6 M 1051.74 1499.6 C 1049.96 1497.82 1047.87 1496.42 1045.48 1495.4 M 1045.48 1495.4 C 1043.09 1494.37 1040.55 1493.86 1037.86 1493.86 M 1037.86 1493.86 C 1035.17 1493.86 1032.63 1494.37 1030.24 1495.4 M 1030.24 1495.4 C 1027.84 1496.42 1025.76 1497.82 1023.98 1499.6 M 1023.98 1499.6 C 1022.2 1501.38 1020.8 1503.46 1019.78 1505.85 M 1019.78 1505.85 C 1018.75 1508.25 1018.24 1510.79 1018.24 1513.48 M 1018.24 1513.48 L 1018.24 1533.1 M 1018.24 1533.1 L 1057.48 1533.1 M 1077.1 1572.27 L 1057.48 1572.27 M 1057.48 1572.27 L 1057.48 1552.65 M 1057.48 1552.65 L 1018.24 1552.65 M 1018.24 1552.65 L 1018.24 1572.27 M 1018.24 1572.27 L 998.69 1572.27 M 998.69 1572.27 L 998.69 1513.48 M 998.69 1513.48 C 998.69 1508.05 999.71 1502.96 1001.76 1498.2 M 1001.76 1498.2 C 1003.82 1493.44 1006.61 1489.28 1010.14 1485.72 M 1010.14 1485.72 C 1013.67 1482.17 1017.82 1479.37 1022.58 1477.31 M 1022.58 1477.31 C 1027.34 1475.26 1032.43 1474.24 1037.86 1474.24 M 1037.86 1474.24 C 1043.28 1474.24 1048.37 1475.26 1053.14 1477.31 M 1053.14 1477.31 C 1057.9 1479.37 1062.06 1482.17 1065.61 1485.72 M 1065.61 1485.72 C 1069.17 1489.28 1071.97 1493.44 1074.02 1498.2 M 1074.02 1498.2 C 1076.07 1502.96 1077.1 1508.05 1077.1 1513.48 M 1077.1 1513.48 L 1077.1 1572.27"/>
    <path d="M 1116.54 1572.27 L 1096.92 1572.27 M 1096.92 1572.27 L 1096.92 1474.24 M 1096.92 1474.24 L 1116.54 1474.24 M 1116.54 1474.24 L 1116.54 1523.25 M 1116.54 1523.25 L 1153.04 1474.24 M 1153.04 1474.24 L 1175.33 1474.24 M 1175.33 1474.24 L 1144.36 1515.59 M 1144.36 1515.59 L 1175.33 1572.27 M 1175.33 1572.27 L 1153.04 1572.27 M 1153.04 1572.27 L 1131.51 1532.62 M 1131.51 1532.62 L 1116.54 1552.65 M 1116.54 1552.65 L 1116.54 1572.27"/>
    <path d="M 514.35 1952.27 L 445.72 1952.27 M 445.72 1952.27 L 445.72 1854.24 M 445.72 1854.24 L 465.33 1854.24 M 465.33 1854.24 L 465.33 1932.65 M 465.33 1932.65 L 514.35 1932.65 M 514.35 1932.65 L 514.35 1952.27"/>
    <path d="M 585.03 1913.1 L 585.03 1893.48 M 585.03 1893.48 C 585.03 1890.79 584.52 1888.25 583.49 1885.85 M 583.49 1885.85 C 582.47 1883.46 581.06 1881.38 579.29 1879.6 M 579.29 1879.6 C 577.51 1877.82 575.43 1876.42 573.03 1875.4 M 573.03 1875.4 C 570.64 1874.37 568.1 1873.86 565.41 1873.86 M 565.41 1873.86 C 562.72 1873.86 560.18 1874.37 557.79 1875.4 M 557.79 1875.4 C 555.4 1876.42 553.31 1877.82 551.53 1879.6 M 551.53 1879.6 C 549.76 1881.38 548.35 1883.46 547.33 1885.85 M 547.33 1885.85 C 546.3 1888.25 545.79 1890.79 545.79 1893.48 M 545.79 1893.48 L 545.79 1913.1 M 545.79 1913.1 L 585.03 1913.1 M 604.65 1952.27 L 585.03 1952.27 M 585.03 1952.27 L 585.03 1932.65 M 585.03 1932.65 L 545.79 1932.65 M 545.79 1932.65 L 545.79 1952.27 M 545.79 1952.27 L 526.24 1952.27 M 526.24 1952.27 L 526.24 1893.48 M 526.24 1893.48 C 526.24 1888.05 527.27 1882.96 529.32 1878.2 M 529.32 1878.2 C 531.37 1873.44 534.16 1869.28 537.69 1865.72 M 537.69 1865.72 C 541.22 1862.17 545.37 1859.37 550.13 1857.31 M 550.13 1857.31 C 554.89 1855.26 559.99 1854.24 565.41 1854.24 M 565.41 1854.24 C 570.83 1854.24 575.93 1855.26 580.69 1857.31 M 580.69 1857.31 C 585.45 1859.37 589.61 1862.17 593.16 1865.72 M 593.16 1865.72 C 596.72 1869.28 599.52 1873.44 601.57 1878.2 M 601.57 1878.2 C 603.62 1882.96 604.65 1888.05 604.65 1893.48 M 604.65 1893.48 L 604.65 1952.27"/>
    <path d="M 618.73 1883.63 C 618.73 1879.58 619.5 1875.77 621.05 1872.22 M 621.05 1872.22 C 622.6 1868.66 624.71 1865.55 627.38 1862.89 M 627.38 1862.89 C 630.04 1860.22 633.15 1858.11 636.71 1856.56 M 636.71 1856.56 C 640.26 1855.01 644.07 1854.24 648.12 1854.24 M 648.12 1854.24 L 693.1 1854.24 M 693.1 1854.24 L 693.1 1873.86 M 693.1 1873.86 L 648.12 1873.86 M 648.12 1873.86 C 646.76 1873.86 645.48 1874.11 644.29 1874.61 M 644.29 1874.61 C 643.11 1875.11 642.07 1875.81 641.18 1876.69 M 641.18 1876.69 C 640.3 1877.58 639.6 1878.62 639.1 1879.8 M 639.1 1879.8 C 638.6 1880.99 638.35 1882.27 638.35 1883.63 M 638.35 1883.63 C 638.35 1885 638.6 1886.29 639.1 1887.49 M 639.1 1887.49 C 639.6 1888.7 640.3 1889.75 641.18 1890.64 M 641.18 1890.64 C 642.07 1891.53 643.11 1892.22 644.29 1892.72 M 644.29 1892.72 C 645.48 1893.23 646.76 1893.48 648.12 1893.48 M 648.12 1893.48 L 667.74 1893.48 M 667.74 1893.48 C 671.8 1893.48 675.61 1894.24 679.19 1895.77 M 679.19 1895.77 C 682.77 1897.29 685.89 1899.39 688.56 1902.06 M 688.56 1902.06 C 691.22 1904.72 693.32 1907.84 694.85 1911.42 M 694.85 1911.42 C 696.37 1915 697.14 1918.82 697.14 1922.87 M 697.14 1922.87 C 697.14 1926.93 696.37 1930.73 694.85 1934.29 M 694.85 1934.29 C 693.32 1937.84 691.22 1940.95 688.56 1943.62 M 688.56 1943.62 C 685.89 1946.28 682.77 1948.39 679.19 1949.94 M 679.19 1949.94 C 675.61 1951.49 671.8 1952.27 667.74 1952.27 M 667.74 1952.27 L 624.2 1952.27 M 624.2 1952.27 L 624.2 1932.65 M 624.2 1932.65 L 667.74 1932.65 M 667.74 1932.65 C 669.11 1932.65 670.38 1932.4 671.57 1931.89 M 671.57 1931.89 C 672.75 1931.39 673.79 1930.7 674.68 1929.81 M 674.68 1929.81 C 675.57 1928.92 676.26 1927.88 676.77 1926.7 M 676.77 1926.7 C 677.27 1925.51 677.52 1924.24 677.52 1922.87 M 677.52 1922.87 C 677.52 1921.5 677.27 1920.23 676.77 1919.04 M 676.77 1919.04 C 676.26 1917.86 675.57 1916.82 674.68 1915.93 M 674.68 1915.93 C 673.79 1915.04 672.75 1914.35 671.57 1913.85 M 671.57 1913.85 C 670.38 1913.35 669.11 1913.1 667.74 1913.1 M 667.74 1913.1 L 648.12 1913.1 M 648.12 1913.1 C 644.07 1913.1 640.26 1912.32 636.71 1910.77 M 636.71 1910.77 C 633.15 1909.22 630.04 1907.11 627.38 1904.45 M 627.38 1904.45 C 624.71 1901.78 622.6 1898.66 621.05 1895.08 M 621.05 1895.08 C 619.5 1891.51 618.73 1887.69 618.73 1883.63"/>
    <path d="M 732.41 1952.27 L 712.79 1952.27 M 712.79 1952.27 L 712.79 1854.24 M 712.79 1854.24 L 732.41 1854.24 M 732.41 1854.24 L 732.41 1893.48 M 732.41 1893.48 L 771.58 1893.48 M 771.58 1893.48 L 771.58 1854.24 M 771.58 1854.24 L 791.2 1854.24 M 791.2 1854.24 L 791.2 1952.27 M 791.2 1952.27 L 771.58 1952.27 M 771.58 1952.27 L 771.58 1913.09 M 771.58 1913.09 L 732.41 1913.09 M 732.41 1913.09 L 732.41 1952.27"/>
    <path d="M 922.78 1952.27 L 854.15 1952.27 M 854.15 1952.27 L 854.15 1854.24 M 854.15 1854.24 L 873.77 1854.24 M 873.77 1854.24 L 873.77 1932.65 M 873.77 1932.65 L 922.78 1932.65 M 922.78 1932.65 L 922.78 1952.27"/>
    <path d="M 935.77 1854.24 H 955.39 V 1952.27 H 935.77 Z"/>
    <path d="M 995.99 1952.27 L 976.37 1952.27 M 976.37 1952.27 L 976.37 1854.24 M 976.37 1854.24 L 1045 1854.24 M 1045 1854.24 L 1045 1873.86 M 1045 1873.86 L 995.99 1873.86 M 995.99 1873.86 L 995.99 1893.48 M 995.99 1893.48 L 1025.38 1893.48 M 1025.38 1893.48 L 1025.38 1913.09 M 1025.38 1913.09 L 995.99 1913.09 M 995.99 1913.09 L 995.99 1952.27"/>
    <path d="M 1099 1952.27 L 1079.45 1952.27 M 1079.45 1952.27 L 1079.45 1873.86 M 1079.45 1873.86 L 1049.99 1873.86 M 1049.99 1873.86 L 1049.99 1854.24 M 1049.99 1854.24 L 1128.4 1854.24 M 1128.4 1854.24 L 1128.4 1873.86 M 1128.4 1873.86 L 1099 1873.86 M 1099 1873.86 L 1099 1952.27"/>
    <path d="M 461 2332.27 L 393.8 2332.27 M 393.8 2332.27 L 393.8 2234.24 M 393.8 2234.24 L 461 2234.24 M 461 2234.24 L 461 2253.86 M 461 2253.86 L 413.42 2253.86 M 413.42 2253.86 L 413.42 2273.48 M 413.42 2273.48 L 445.61 2273.48 M 445.61 2273.48 L 445.61 2293.1 M 445.61 2293.1 L 413.42 2293.1 M 413.42 2293.1 L 413.42 2312.65 M 413.42 2312.65 L 461 2312.65 M 461 2312.65 L 461 2332.27"/>
    <path d="M 497.15 2332.27 L 477.54 2332.27 M 477.54 2332.27 L 477.54 2234.24 M 477.54 2234.24 L 497.15 2234.24 M 497.15 2234.24 L 497.15 2283.25 M 497.15 2283.25 L 533.66 2234.24 M 533.66 2234.24 L 555.94 2234.24 M 555.94 2234.24 L 524.98 2275.6 M 524.98 2275.6 L 555.94 2332.27 M 555.94 2332.27 L 533.66 2332.27 M 533.66 2332.27 L 512.13 2292.62 M 512.13 2292.62 L 497.15 2312.65 M 497.15 2312.65 L 497.15 2332.27"/>
    <path d="M 562.09 2263.63 C 562.09 2259.58 562.87 2255.77 564.42 2252.22 M 564.42 2252.22 C 565.97 2248.66 568.07 2245.55 570.74 2242.89 M 570.74 2242.89 C 573.41 2240.22 576.52 2238.11 580.07 2236.56 M 580.07 2236.56 C 583.63 2235.01 587.43 2234.24 591.49 2234.24 M 591.49 2234.24 L 636.47 2234.24 M 636.47 2234.24 L 636.47 2253.86 M 636.47 2253.86 L 591.49 2253.86 M 591.49 2253.86 C 590.12 2253.86 588.84 2254.11 587.66 2254.61 M 587.66 2254.61 C 586.47 2255.11 585.44 2255.81 584.55 2256.69 M 584.55 2256.69 C 583.66 2257.58 582.97 2258.62 582.46 2259.8 M 582.46 2259.8 C 581.96 2260.99 581.71 2262.27 581.71 2263.63 M 581.71 2263.63 C 581.71 2265 581.96 2266.29 582.46 2267.49 M 582.46 2267.49 C 582.97 2268.7 583.66 2269.75 584.55 2270.64 M 584.55 2270.64 C 585.44 2271.53 586.47 2272.22 587.66 2272.72 M 587.66 2272.72 C 588.84 2273.23 590.12 2273.48 591.49 2273.48 M 591.49 2273.48 L 611.11 2273.48 M 611.11 2273.48 C 615.16 2273.48 618.98 2274.24 622.56 2275.77 M 622.56 2275.77 C 626.13 2277.29 629.26 2279.39 631.92 2282.06 M 631.92 2282.06 C 634.59 2284.72 636.68 2287.84 638.21 2291.42 M 638.21 2291.42 C 639.74 2295 640.5 2298.82 640.5 2302.87 M 640.5 2302.87 C 640.5 2306.93 639.74 2310.73 638.21 2314.29 M 638.21 2314.29 C 636.68 2317.84 634.59 2320.95 631.92 2323.62 M 631.92 2323.62 C 629.26 2326.28 626.13 2328.39 622.56 2329.94 M 622.56 2329.94 C 618.98 2331.49 615.16 2332.27 611.11 2332.27 M 611.11 2332.27 L 567.56 2332.27 M 567.56 2332.27 L 567.56 2312.65 M 567.56 2312.65 L 611.11 2312.65 M 611.11 2312.65 C 612.47 2312.65 613.75 2312.4 614.94 2311.89 M 614.94 2311.89 C 616.12 2311.39 617.16 2310.7 618.05 2309.81 M 618.05 2309.81 C 618.93 2308.92 619.63 2307.88 620.13 2306.7 M 620.13 2306.7 C 620.63 2305.51 620.88 2304.24 620.88 2302.87 M 620.88 2302.87 C 620.88 2301.5 620.63 2300.23 620.13 2299.04 M 620.13 2299.04 C 619.63 2297.86 618.93 2296.82 618.05 2295.93 M 618.05 2295.93 C 617.16 2295.04 616.12 2294.35 614.94 2293.85 M 614.94 2293.85 C 613.75 2293.35 612.47 2293.1 611.11 2293.1 M 611.11 2293.1 L 591.49 2293.1 M 591.49 2293.1 C 587.43 2293.1 583.63 2292.32 580.07 2290.77 M 580.07 2290.77 C 576.52 2289.22 573.41 2287.11 570.74 2284.45 M 570.74 2284.45 C 568.07 2281.78 565.97 2278.66 564.42 2275.08 M 564.42 2275.08 C 562.87 2271.51 562.09 2267.69 562.09 2263.63"/>
    <path d="M 697.31 2332.27 L 677.75 2332.27 M 677.75 2332.27 L 677.75 2253.86 M 677.75 2253.86 L 648.29 2253.86 M 648.29 2253.86 L 648.29 2234.24 M 648.29 2234.24 L 726.7 2234.24 M 726.7 2234.24 L 726.7 2253.86 M 726.7 2253.86 L 697.31 2253.86 M 697.31 2253.86 L 697.31 2332.27"/>
    <path d="M 807.09 2332.27 L 739.89 2332.27 M 739.89 2332.27 L 739.89 2234.24 M 739.89 2234.24 L 807.09 2234.24 M 807.09 2234.24 L 807.09 2253.86 M 807.09 2253.86 L 759.51 2253.86 M 759.51 2253.86 L 759.51 2273.48 M 759.51 2273.48 L 791.71 2273.48 M 791.71 2273.48 L 791.71 2293.1 M 791.71 2293.1 L 759.51 2293.1 M 759.51 2293.1 L 759.51 2312.65 M 759.51 2312.65 L 807.09 2312.65 M 807.09 2312.65 L 807.09 2332.27"/>
    <path d="M 902.04 2332.27 L 881.05 2332.27 M 881.05 2332.27 L 843.25 2267.73 M 843.25 2267.73 L 843.25 2332.27 M 843.25 2332.27 L 823.63 2332.27 M 823.63 2332.27 L 823.63 2234.24 M 823.63 2234.24 L 844.61 2234.24 M 844.61 2234.24 L 882.42 2298.84 M 882.42 2298.84 L 882.42 2234.24 M 882.42 2234.24 L 902.04 2234.24 M 902.04 2234.24 L 902.04 2332.27"/>
    <path d="M 993.02 2332.27 L 917.14 2332.27 M 917.14 2332.27 L 958.98 2253.86 M 958.98 2253.86 L 917.14 2253.86 M 917.14 2253.86 L 917.14 2234.24 M 917.14 2234.24 L 993.02 2234.24 M 993.02 2234.24 L 951.32 2312.65 M 951.32 2312.65 L 993.02 2312.65 M 993.02 2312.65 L 993.02 2332.27"/>
    <path d="M 1007.99 2234.24 H 1027.61 V 2332.27 H 1007.99 Z"/>
    <path d="M 1089.88 2293.1 C 1089.88 2298.52 1088.85 2303.61 1086.8 2308.37 M 1086.8 2308.37 C 1084.75 2313.14 1081.96 2317.28 1078.43 2320.82 M 1078.43 2320.82 C 1074.9 2324.35 1070.75 2327.14 1065.99 2329.19 M 1065.99 2329.19 C 1061.23 2331.24 1056.13 2332.27 1050.71 2332.27 M 1050.71 2332.27 C 1047.43 2332.27 1044.15 2331.86 1040.87 2331.03 M 1040.87 2331.03 L 1040.87 2309.98 M 1040.87 2309.98 C 1042.32 2310.85 1043.9 2311.51 1045.58 2311.96 M 1045.58 2311.96 C 1047.27 2312.42 1048.98 2312.65 1050.71 2312.65 M 1050.71 2312.65 C 1053.4 2312.65 1055.94 2312.13 1058.33 2311.11 M 1058.33 2311.11 C 1060.72 2310.08 1062.81 2308.68 1064.59 2306.9 M 1064.59 2306.9 C 1066.36 2305.13 1067.77 2303.05 1068.79 2300.68 M 1068.79 2300.68 C 1069.82 2298.31 1070.33 2295.78 1070.33 2293.1 M 1070.33 2293.1 L 1070.33 2234.24 M 1070.33 2234.24 L 1089.88 2234.24 M 1089.88 2234.24 L 1089.88 2293.1"/>
    <path d="M 1176.97 2332.27 L 1109.77 2332.27 M 1109.77 2332.27 L 1109.77 2234.24 M 1109.77 2234.24 L 1176.97 2234.24 M 1176.97 2234.24 L 1176.97 2253.86 M 1176.97 2253.86 L 1129.39 2253.86 M 1129.39 2253.86 L 1129.39 2273.48 M 1129.39 2273.48 L 1161.59 2273.48 M 1161.59 2273.48 L 1161.59 2293.1 M 1161.59 2293.1 L 1129.39 2293.1 M 1129.39 2293.1 L 1129.39 2312.65 M 1129.39 2312.65 L 1176.97 2312.65 M 1176.97 2312.65 L 1176.97 2332.27"/>
    <path d="M 580.65 2712.27 L 561.1 2712.27 M 561.1 2712.27 L 561.1 2642.27 M 561.1 2642.27 C 561.1 2640.9 560.84 2639.62 560.32 2638.44 M 560.32 2638.44 C 559.79 2637.25 559.09 2636.22 558.2 2635.33 M 558.2 2635.33 C 557.31 2634.44 556.27 2633.74 555.09 2633.24 M 555.09 2633.24 C 553.9 2632.74 552.63 2632.49 551.26 2632.49 M 551.26 2632.49 C 549.89 2632.49 548.62 2632.74 547.43 2633.24 M 547.43 2633.24 C 546.25 2633.74 545.21 2634.44 544.32 2635.33 M 544.32 2635.33 C 543.43 2636.22 542.74 2637.25 542.24 2638.44 M 542.24 2638.44 C 541.73 2639.62 541.48 2640.9 541.48 2642.27 M 541.48 2642.27 L 541.48 2712.27 M 541.48 2712.27 L 521.87 2712.27 M 521.87 2712.27 L 521.87 2642.27 M 521.87 2642.27 C 521.87 2640.9 521.61 2639.62 521.11 2638.44 M 521.11 2638.44 C 520.61 2637.25 519.92 2636.22 519.03 2635.33 M 519.03 2635.33 C 518.14 2634.44 517.1 2633.74 515.92 2633.24 M 515.92 2633.24 C 514.73 2632.74 513.46 2632.49 512.09 2632.49 M 512.09 2632.49 C 510.72 2632.49 509.45 2632.74 508.26 2633.24 M 508.26 2633.24 C 507.08 2633.74 506.04 2634.44 505.15 2635.33 M 505.15 2635.33 C 504.26 2636.22 503.57 2637.25 503.07 2638.44 M 503.07 2638.44 C 502.56 2639.62 502.31 2640.9 502.31 2642.27 M 502.31 2642.27 L 502.31 2712.27 M 502.31 2712.27 L 482.7 2712.27 M 482.7 2712.27 L 482.7 2642.27 M 482.7 2642.27 C 482.7 2638.21 483.46 2634.39 484.99 2630.82 M 484.99 2630.82 C 486.51 2627.24 488.61 2624.12 491.27 2621.45 M 491.27 2621.45 C 493.94 2618.78 497.06 2616.69 500.64 2615.16 M 500.64 2615.16 C 504.22 2613.63 508.03 2612.87 512.09 2612.87 M 512.09 2612.87 C 515.74 2612.87 519.24 2613.52 522.62 2614.82 M 522.62 2614.82 C 525.99 2616.12 529.02 2618 531.71 2620.46 M 531.71 2620.46 C 534.4 2618 537.42 2616.12 540.77 2614.82 M 540.77 2614.82 C 544.12 2613.52 547.61 2612.87 551.26 2612.87 M 551.26 2612.87 C 555.32 2612.87 559.13 2613.63 562.71 2615.16 M 562.71 2615.16 C 566.29 2616.69 569.41 2618.78 572.08 2621.45 M 572.08 2621.45 C 574.74 2624.12 576.84 2627.24 578.36 2630.82 M 578.36 2630.82 C 579.89 2634.39 580.65 2638.21 580.65 2642.27 M 580.65 2642.27 L 580.65 2712.27"/>
    <path d="M 658.65 2673.09 L 658.65 2653.48 M 658.65 2653.48 C 658.65 2650.79 658.14 2648.25 657.11 2645.85 M 657.11 2645.85 C 656.09 2643.46 654.68 2641.38 652.91 2639.6 M 652.91 2639.6 C 651.13 2637.82 649.05 2636.42 646.65 2635.4 M 646.65 2635.4 C 644.26 2634.37 641.72 2633.86 639.03 2633.86 M 639.03 2633.86 C 636.34 2633.86 633.8 2634.37 631.41 2635.4 M 631.41 2635.4 C 629.02 2636.42 626.93 2637.82 625.15 2639.6 M 625.15 2639.6 C 623.38 2641.38 621.97 2643.46 620.95 2645.85 M 620.95 2645.85 C 619.92 2648.25 619.41 2650.79 619.41 2653.48 M 619.41 2653.48 L 619.41 2673.09 M 619.41 2673.09 L 658.65 2673.09 M 678.27 2712.26 L 658.65 2712.26 M 658.65 2712.26 L 658.65 2692.65 M 658.65 2692.65 L 619.41 2692.65 M 619.41 2692.65 L 619.41 2712.26 M 619.41 2712.26 L 599.86 2712.26 M 599.86 2712.26 L 599.86 2653.48 M 599.86 2653.48 C 599.86 2648.05 600.89 2642.96 602.94 2638.2 M 602.94 2638.2 C 604.99 2633.44 607.78 2629.28 611.31 2625.72 M 611.31 2625.72 C 614.84 2622.17 618.99 2619.36 623.75 2617.31 M 623.75 2617.31 C 628.51 2615.26 633.61 2614.24 639.03 2614.24 M 639.03 2614.24 C 644.45 2614.24 649.55 2615.26 654.31 2617.31 M 654.31 2617.31 C 659.07 2619.36 663.23 2622.17 666.78 2625.72 M 666.78 2625.72 C 670.34 2629.28 673.14 2633.44 675.19 2638.2 M 675.19 2638.2 C 677.24 2642.96 678.27 2648.05 678.27 2653.48 M 678.27 2653.48 L 678.27 2712.26"/>
    <path d="M 717.71 2712.27 L 698.09 2712.27 M 698.09 2712.27 L 698.09 2614.24 M 698.09 2614.24 L 717.71 2614.24 M 717.71 2614.24 L 717.71 2663.25 M 717.71 2663.25 L 754.21 2614.24 M 754.21 2614.24 L 776.5 2614.24 M 776.5 2614.24 L 745.53 2655.6 M 745.53 2655.6 L 776.5 2712.27 M 776.5 2712.27 L 754.21 2712.27 M 754.21 2712.27 L 732.68 2672.62 M 732.68 2672.62 L 717.71 2692.65 M 717.71 2692.65 L 717.71 2712.27"/>
    <path d="M 855.59 2712.27 L 788.39 2712.27 M 788.39 2712.27 L 788.39 2614.24 M 788.39 2614.24 L 855.59 2614.24 M 855.59 2614.24 L 855.59 2633.86 M 855.59 2633.86 L 808.01 2633.86 M 808.01 2633.86 L 808.01 2653.48 M 808.01 2653.48 L 840.21 2653.48 M 840.21 2653.48 L 840.21 2673.1 M 840.21 2673.1 L 808.01 2673.1 M 808.01 2673.1 L 808.01 2692.65 M 808.01 2692.65 L 855.59 2692.65 M 855.59 2692.65 L 855.59 2712.27"/>
    <path d="M 991.41 2673.09 C 991.41 2678.52 990.39 2683.61 988.34 2688.37 M 988.34 2688.37 C 986.28 2693.14 983.48 2697.28 979.93 2700.81 M 979.93 2700.81 C 976.37 2704.35 972.21 2707.14 967.45 2709.19 M 967.45 2709.19 C 962.69 2711.24 957.6 2712.26 952.17 2712.26 M 952.17 2712.26 C 946.75 2712.26 941.66 2711.24 936.9 2709.19 M 936.9 2709.19 C 932.13 2707.14 927.98 2704.35 924.45 2700.81 M 924.45 2700.81 C 920.92 2697.28 918.13 2693.14 916.08 2688.37 M 916.08 2688.37 C 914.03 2683.61 913 2678.52 913 2673.09 M 913 2673.09 L 913 2614.24 M 913 2614.24 L 932.55 2614.24 M 932.55 2614.24 L 932.55 2673.09 M 932.55 2673.09 C 932.55 2675.78 933.07 2678.31 934.09 2680.68 M 934.09 2680.68 C 935.12 2683.05 936.52 2685.13 938.3 2686.9 M 938.3 2686.9 C 940.07 2688.68 942.16 2690.08 944.55 2691.11 M 944.55 2691.11 C 946.94 2692.13 949.48 2692.65 952.17 2692.65 M 952.17 2692.65 C 954.86 2692.65 957.4 2692.13 959.8 2691.11 M 959.8 2691.11 C 962.19 2690.08 964.27 2688.68 966.05 2686.9 M 966.05 2686.9 C 967.83 2685.13 969.23 2683.05 970.26 2680.68 M 970.26 2680.68 C 971.28 2678.31 971.79 2675.78 971.79 2673.09 M 971.79 2673.09 L 971.79 2614.24 M 971.79 2614.24 L 991.41 2614.24 M 991.41 2614.24 L 991.41 2673.09"/>
    <path d="M 1030.85 2633.86 L 1030.85 2673.09 M 1030.85 2673.09 L 1050.47 2673.09 M 1050.47 2673.09 C 1053.16 2673.09 1055.69 2672.58 1058.06 2671.56 M 1058.06 2671.56 C 1060.43 2670.53 1062.5 2669.13 1064.28 2667.35 M 1064.28 2667.35 C 1066.06 2665.58 1067.46 2663.49 1068.48 2661.1 M 1068.48 2661.1 C 1069.51 2658.71 1070.02 2656.17 1070.02 2653.48 M 1070.02 2653.48 C 1070.02 2650.79 1069.51 2648.25 1068.48 2645.85 M 1068.48 2645.85 C 1067.46 2643.46 1066.06 2641.38 1064.28 2639.6 M 1064.28 2639.6 C 1062.5 2637.82 1060.43 2636.42 1058.06 2635.4 M 1058.06 2635.4 C 1055.69 2634.37 1053.16 2633.86 1050.47 2633.86 M 1050.47 2633.86 L 1030.85 2633.86 M 1030.85 2712.26 L 1011.23 2712.26 M 1011.23 2712.26 L 1011.23 2614.24 M 1011.23 2614.24 L 1050.47 2614.24 M 1050.47 2614.24 C 1054.07 2614.24 1057.54 2614.71 1060.86 2615.64 M 1060.86 2615.64 C 1064.19 2616.57 1067.3 2617.9 1070.19 2619.6 M 1070.19 2619.6 C 1073.09 2621.31 1075.73 2623.36 1078.12 2625.76 M 1078.12 2625.76 C 1080.52 2628.15 1082.57 2630.8 1084.28 2633.72 M 1084.28 2633.72 C 1085.98 2636.64 1087.31 2639.76 1088.24 2643.09 M 1088.24 2643.09 C 1089.17 2646.41 1089.64 2649.88 1089.64 2653.48 M 1089.64 2653.48 C 1089.64 2658.85 1088.62 2663.92 1086.57 2668.69 M 1086.57 2668.69 C 1084.51 2673.45 1081.71 2677.61 1078.16 2681.16 M 1078.16 2681.16 C 1074.6 2684.72 1070.44 2687.52 1065.68 2689.57 M 1065.68 2689.57 C 1060.92 2691.62 1055.85 2692.65 1050.47 2692.65 M 1050.47 2692.65 L 1030.85 2692.65 M 1030.85 2692.65 L 1030.85 2712.26"/>
  </g>
</svg>
